{
  "asset": {
    "generator": "Khronos Blender glTF 2.0 I/O",
    "version": "2.0"
  },
  "scene": 0,
  "scenes": [
    {
      "name": "Scene",
      "nodes": [0, 1, 2]
    }
  ],
  "nodes": [
    {
      "mesh": 0,
      "name": "Cube"
    },
    {
      "name": "Light",
      "rotation": [
        0.16907575726509094, 0.7558802962303162, -0.27217137813568115,
        0.570947527885437
      ],
      "translation": [4.076245307922363, 5.903861999511719, -1.0054539442062378]
    },
    {
      "name": "Camera",
      "rotation": [
        0.483536034822464, 0.33687159419059753, -0.20870360732078552,
        0.7804827094078064
      ],
      "translation": [7.358891487121582, 4.958309173583984, 6.925790786743164]
    }
  ],
  "materials": [
    {
      "name": "Material",
      "pbrMetallicRoughness": {
        "baseColorFactor": [
          0.800000011920929, 0.800000011920929, 0.800000011920929, 1
        ],
        "metallicFactor": 0,
        "roughnessFactor": 0.5
      }
    }
  ],
  "meshes": [
    {
      "name": "Cube",
      "primitives": [
        {
          "attributes": {
            "POSITION": 0,
            "NORMAL": 1,
            "TEXCOORD_0": 2
          },
          "indices": 3,
          "material": 0,
          "targets": [
            {
              "POSITION": 4,
              "NORMAL": 5
            },
            {
              "POSITION": 6,
              "NORMAL": 7
            }
          ]
        }
      ]
    }
  ],
  "accessors": [
    {
      "bufferView": 0,
      "componentType": 5126,
      "count": 6144,
      "max": [1, 1, 1],
      "min": [-1, -1, -1],
      "type": "VEC3"
    },
    {
      "bufferView": 1,
      "componentType": 5126,
      "count": 6144,
      "type": "VEC3"
    },
    {
      "bufferView": 2,
      "componentType": 5126,
      "count": 6144,
      "type": "VEC2"
    },
    {
      "bufferView": 3,
      "componentType": 5123,
      "count": 9216,
      "type": "SCALAR"
    },
    {
      "bufferView": 4,
      "componentType": 5126,
      "count": 6144,
      "max": [0.20659780502319336, 0.20659780502319336, 0.20659780502319336],
      "min": [-0.20659780502319336, -0.20659780502319336, -0.20659780502319336],
      "type": "VEC3"
    },
    {
      "bufferView": 5,
      "componentType": 5126,
      "count": 6144,
      "type": "VEC3"
    },
    {
      "bufferView": 6,
      "componentType": 5126,
      "count": 6144,
      "max": [0, 0, 0],
      "min": [0, 0, 0],
      "type": "VEC3"
    },
    {
      "bufferView": 7,
      "componentType": 5126,
      "count": 6144,
      "type": "VEC3"
    }
  ],
  "bufferViews": [
    {
      "buffer": 0,
      "byteLength": 73728,
      "byteOffset": 0
    },
    {
      "buffer": 0,
      "byteLength": 73728,
      "byteOffset": 73728
    },
    {
      "buffer": 0,
      "byteLength": 49152,
      "byteOffset": 147456
    },
    {
      "buffer": 0,
      "byteLength": 18432,
      "byteOffset": 196608
    },
    {
      "buffer": 0,
      "byteLength": 73728,
      "byteOffset": 215040
    },
    {
      "buffer": 0,
      "byteLength": 73728,
      "byteOffset": 288768
    },
    {
      "buffer": 0,
      "byteLength": 73728,
      "byteOffset": 362496
    },
    {
      "buffer": 0,
      "byteLength": 73728,
      "byteOffset": 436224
    }
  ],
  "buffers": [
    {
      "byteLength": 509952,
      "uri": "data:application/octet-stream;base64,"
    }
  ]
}
