{
  "asset": {
    "generator": "Khronos Blender glTF 2.0 I/O",
    "version": "2.0"
  },
  "scene": 0,
  "scenes": [
    {
      "name": "Scene",
      "nodes": [0, 1, 2]
    }
  ],
  "nodes": [
    {
      "mesh": 0,
      "name": "Cube"
    },
    {
      "name": "Light",
      "rotation": [
        0.16907575726509094, 0.7558802962303162, -0.27217137813568115,
        0.570947527885437
      ],
      "translation": [4.076245307922363, 5.903861999511719, -1.0054539442062378]
    },
    {
      "name": "Camera",
      "rotation": [
        0.483536034822464, 0.33687159419059753, -0.20870360732078552,
        0.7804827094078064
      ],
      "translation": [7.358891487121582, 4.958309173583984, 6.925790786743164]
    }
  ],
  "animations": [
    {
      "channels": [
        {
          "sampler": 0,
          "target": {
            "node": 0,
            "path": "weights"
          }
        }
      ],
      "name": "KeyAction",
      "samplers": [
        {
          "input": 8,
          "interpolation": "STEP",
          "output": 9
        }
      ]
    }
  ],
  "materials": [
    {
      "name": "Material",
      "pbrMetallicRoughness": {
        "baseColorFactor": [
          0.800000011920929, 0.800000011920929, 0.800000011920929, 1
        ],
        "metallicFactor": 0,
        "roughnessFactor": 0.5
      }
    }
  ],
  "meshes": [
    {
      "name": "Cube",
      "primitives": [
        {
          "attributes": {
            "POSITION": 0,
            "NORMAL": 1,
            "TEXCOORD_0": 2
          },
          "indices": 3,
          "material": 0,
          "targets": [
            {
              "POSITION": 4,
              "NORMAL": 5
            },
            {
              "POSITION": 6,
              "NORMAL": 7
            }
          ]
        }
      ]
    }
  ],
  "accessors": [
    {
      "bufferView": 0,
      "componentType": 5126,
      "count": 384,
      "max": [1, 1, 1],
      "min": [-1, -1, -1],
      "type": "VEC3"
    },
    {
      "bufferView": 1,
      "componentType": 5126,
      "count": 384,
      "type": "VEC3"
    },
    {
      "bufferView": 2,
      "componentType": 5126,
      "count": 384,
      "type": "VEC2"
    },
    {
      "bufferView": 3,
      "componentType": 5123,
      "count": 576,
      "type": "SCALAR"
    },
    {
      "bufferView": 4,
      "componentType": 5126,
      "count": 384,
      "max": [0.3417767286300659, 0.3417767286300659, 0.3417767286300659],
      "min": [-0.3417767286300659, -0.3417767286300659, -0.3417767286300659],
      "type": "VEC3"
    },
    {
      "bufferView": 5,
      "componentType": 5126,
      "count": 384,
      "type": "VEC3"
    },
    {
      "bufferView": 6,
      "componentType": 5126,
      "count": 384,
      "max": [0, 0, 0],
      "min": [0, 0, 0],
      "type": "VEC3"
    },
    {
      "bufferView": 7,
      "componentType": 5126,
      "count": 384,
      "type": "VEC3"
    },
    {
      "bufferView": 8,
      "componentType": 5126,
      "count": 385,
      "max": [0.7916666666666665],
      "min": [0.125],
      "type": "SCALAR"
    },
    {
      "bufferView": 9,
      "componentType": 5126,
      "count": 770,
      "type": "SCALAR"
    }
  ],
  "bufferViews": [
    {
      "buffer": 0,
      "byteLength": 4608,
      "byteOffset": 0
    },
    {
      "buffer": 0,
      "byteLength": 4608,
      "byteOffset": 4608
    },
    {
      "buffer": 0,
      "byteLength": 3072,
      "byteOffset": 9216
    },
    {
      "buffer": 0,
      "byteLength": 1152,
      "byteOffset": 12288
    },
    {
      "buffer": 0,
      "byteLength": 4608,
      "byteOffset": 13440
    },
    {
      "buffer": 0,
      "byteLength": 4608,
      "byteOffset": 18048
    },
    {
      "buffer": 0,
      "byteLength": 4608,
      "byteOffset": 22656
    },
    {
      "buffer": 0,
      "byteLength": 4608,
      "byteOffset": 27264
    },
    {
      "buffer": 0,
      "byteLength": 1540,
      "byteOffset": 31872
    },
    {
      "buffer": 0,
      "byteLength": 3080,
      "byteOffset": 33412
    }
  ],
  "buffers": [
    {
      "byteLength": 36492,
      "uri": "data:application/octet-stream;base64,"
    }
  ]
}
