<?xml version="1.0" standalone="no"?>
<!DOCTYPE svg PUBLIC "-//W3C//DTD SVG 20010904//EN"
 "http://www.w3.org/TR/2001/REC-SVG-20010904/DTD/svg10.dtd">
<svg version="1.0" xmlns="http://www.w3.org/2000/svg"
 width="1000.000000pt" height="1000.000000pt" viewBox="0 0 1000.000000 1000.000000"
 preserveAspectRatio="xMidYMid meet">
<metadata>
Created by potrace 1.11, written by Peter Selinger 2001-2013
</metadata>
<g transform="translate(0.000000,1000.000000) scale(0.100000,-0.100000)"
fill="#000000" stroke="none">
<path d="M4893 8194 c-7 -3 7 -22 35 -47 26 -23 56 -51 68 -62 11 -11 58 -54
105 -96 130 -119 163 -150 329 -312 142 -138 286 -275 549 -523 52 -49 187
-180 300 -292 113 -112 280 -276 371 -364 91 -88 195 -189 233 -226 l67 -66
-62 -22 c-35 -12 -97 -34 -138 -48 l-75 -27 -48 53 c-44 48 -483 496 -1124
1145 -131 133 -377 384 -548 558 l-310 316 -45 -6 c-71 -9 -114 -15 -137 -19
-12 -3 -42 -8 -67 -11 -26 -4 -49 -11 -51 -16 -3 -4 11 -23 31 -41 20 -18 48
-44 63 -58 15 -14 71 -65 126 -115 54 -49 110 -101 125 -115 15 -14 73 -68
130 -120 57 -52 132 -122 166 -155 136 -133 233 -223 309 -290 43 -38 86 -77
95 -85 9 -8 51 -46 94 -85 317 -282 369 -330 537 -495 104 -103 348 -338 495
-478 l31 -29 -76 -28 c-42 -15 -109 -39 -149 -54 l-73 -26 -1059 1062 -1059
1062 -38 -10 c-21 -6 -45 -13 -53 -16 -8 -3 -20 -7 -26 -8 -6 -2 -39 -13 -74
-26 l-62 -23 53 -49 c30 -28 86 -80 125 -116 70 -66 245 -227 295 -272 96 -86
241 -222 353 -330 72 -69 163 -154 201 -189 39 -35 77 -71 86 -79 9 -9 44 -41
79 -71 35 -30 73 -63 84 -73 12 -10 54 -48 94 -85 41 -36 83 -74 95 -84 74
-65 199 -181 316 -294 164 -159 205 -197 311 -294 46 -41 101 -92 123 -114
l39 -38 -133 -50 c-74 -27 -152 -58 -174 -68 l-40 -18 -73 77 c-78 81 -410
425 -527 546 -38 40 -164 170 -280 289 -115 120 -252 261 -304 314 -262 272
-371 384 -526 547 -93 98 -215 226 -271 283 l-100 104 -137 -68 c-75 -37 -137
-72 -137 -76 0 -5 27 -34 61 -66 33 -31 86 -81 117 -110 32 -30 84 -77 116
-105 33 -29 69 -61 80 -72 12 -11 57 -52 100 -90 44 -39 87 -77 96 -85 9 -8
51 -46 95 -85 43 -38 101 -90 129 -115 28 -25 107 -100 176 -166 69 -67 144
-139 167 -160 45 -42 189 -174 232 -213 22 -20 171 -157 262 -241 108 -100
296 -279 313 -299 12 -13 71 -63 131 -111 61 -48 123 -99 139 -113 l30 -26
-25 -9 c-13 -6 -82 -33 -153 -61 l-129 -52 -176 180 c-97 98 -417 423 -711
721 -664 671 -792 802 -1005 1023 -93 98 -173 177 -178 177 -10 0 -193 -125
-214 -145 -11 -11 84 -108 303 -311 17 -16 77 -72 134 -124 57 -52 132 -122
168 -155 79 -73 128 -119 252 -239 93 -89 124 -116 300 -266 47 -40 101 -86
121 -104 20 -17 56 -48 80 -68 24 -20 55 -46 69 -58 14 -12 47 -40 74 -63 27
-23 60 -52 72 -64 13 -13 26 -23 29 -23 3 0 18 -12 33 -27 15 -16 45 -43 67
-62 22 -19 112 -103 200 -187 88 -84 184 -174 214 -201 l53 -49 -133 -53 c-74
-29 -139 -55 -145 -57 -12 -5 -140 119 -414 403 -189 195 -639 657 -880 903
-74 76 -218 224 -320 330 -102 106 -230 239 -285 295 l-100 104 -45 -41 c-178
-158 -171 -151 -167 -188 6 -57 32 -94 123 -177 48 -43 99 -90 115 -104 34
-32 209 -186 328 -289 35 -30 73 -64 85 -75 12 -11 53 -47 91 -80 38 -33 109
-99 159 -146 134 -128 181 -171 213 -198 15 -13 44 -38 63 -55 20 -17 60 -51
90 -76 29 -25 58 -50 64 -55 6 -6 56 -48 111 -94 55 -46 109 -92 120 -102 11
-10 29 -26 40 -36 12 -10 49 -43 85 -72 35 -29 69 -58 76 -64 6 -7 47 -43 90
-82 116 -105 175 -165 170 -174 -3 -4 -24 -14 -48 -21 -24 -8 -45 -18 -48 -22
-3 -4 -15 -9 -25 -11 -11 -2 -37 -11 -58 -20 l-37 -16 -312 307 c-171 169
-602 596 -957 950 l-645 642 -29 -32 c-75 -84 -95 -106 -131 -152 l-40 -49 71
-66 c39 -36 110 -102 158 -146 48 -44 102 -93 119 -110 18 -16 75 -68 126
-115 52 -47 106 -96 120 -110 15 -14 80 -75 146 -136 65 -62 162 -154 215
-206 97 -94 169 -160 334 -303 50 -43 101 -88 115 -101 14 -13 52 -47 85 -76
33 -29 136 -128 229 -220 l169 -167 -29 -11 c-16 -6 -38 -15 -49 -20 -11 -5
-48 -20 -82 -34 l-63 -24 -87 90 c-49 49 -186 190 -306 311 -465 472 -943 961
-1179 1207 l-147 153 -20 -24 c-11 -13 -20 -27 -21 -31 0 -4 -6 -13 -13 -20
-20 -21 -67 -97 -67 -108 0 -5 -4 -10 -9 -10 -5 0 -11 -8 -15 -17 -7 -21 -28
-56 -39 -64 -4 -3 20 -30 54 -60 34 -30 74 -65 89 -79 15 -14 47 -42 71 -63
40 -36 189 -172 280 -257 223 -209 340 -322 557 -535 619 -611 609 -600 561
-609 -8 -1 -30 -9 -49 -18 -20 -9 -42 -12 -50 -8 -14 8 -240 234 -345 345 -26
28 -257 262 -513 520 -257 259 -517 523 -578 588 l-111 117 -18 -40 c-16 -35
-30 -46 -114 -88 -179 -90 -266 -135 -391 -205 -117 -65 -383 -222 -405 -239
-5 -4 -68 -47 -140 -94 -131 -88 -330 -236 -395 -294 -19 -17 -51 -45 -70 -61
-82 -70 -227 -219 -302 -309 -78 -94 -229 -330 -227 -355 0 -3 -10 -27 -22
-53 -11 -26 -22 -51 -23 -57 -5 -21 -29 -101 -37 -125 -44 -129 -48 -408 -7
-555 7 -22 12 -42 13 -45 12 -55 75 -187 122 -257 146 -214 417 -353 758 -389
44 -5 297 -5 360 0 48 4 212 23 260 31 61 10 100 17 119 21 11 3 53 11 91 19
107 22 176 38 374 87 7 2 24 -17 38 -42 103 -181 198 -332 215 -338 4 -2 8 -8
8 -13 0 -8 92 -132 110 -149 3 -3 25 -30 50 -60 25 -30 51 -61 58 -69 11 -11
11 -15 1 -22 -7 -4 -17 -6 -21 -3 -4 3 -43 1 -85 -5 -123 -16 -163 -20 -233
-26 -36 -3 -85 -8 -110 -10 -25 -2 -90 -7 -145 -11 -55 -4 -120 -8 -145 -10
-25 -2 -175 -5 -335 -8 -159 -3 -303 -8 -320 -11 -39 -8 -131 -50 -153 -70
-131 -121 -171 -205 -167 -351 5 -183 133 -341 313 -388 84 -21 535 -12 932
19 30 2 91 7 135 10 44 3 91 8 105 10 14 2 59 6 101 10 42 3 85 7 95 9 11 2
48 7 84 11 36 4 73 9 82 10 9 2 43 6 75 10 32 3 69 7 83 10 14 2 43 7 65 10
22 3 67 10 100 15 33 5 78 11 100 15 22 3 105 17 185 31 197 35 187 35 260 -2
90 -44 173 -78 320 -130 69 -25 125 -44 125 -44 0 1 7 -1 15 -3 38 -12 101
-28 160 -43 93 -23 102 -25 130 -28 14 -2 36 -6 50 -9 14 -4 42 -9 64 -12 21
-3 43 -8 50 -11 13 -7 -101 105 -314 306 -85 80 -203 193 -264 252 -61 58
-140 134 -176 168 -349 330 -1130 1106 -1130 1123 0 3 12 8 28 11 15 4 34 9
43 12 11 3 129 -107 365 -341 325 -323 806 -796 1342 -1322 188 -185 232 -223
257 -224 17 -1 41 -3 55 -6 40 -6 391 -11 439 -5 l45 4 -186 182 c-103 99
-302 294 -443 431 -343 333 -1435 1417 -1435 1424 0 4 20 13 45 22 25 9 45 13
45 9 0 -11 327 -339 439 -440 144 -130 332 -305 452 -420 472 -454 641 -619
1009 -985 l215 -213 80 13 c44 7 98 16 120 19 22 4 80 16 129 28 l90 21 -81
76 c-45 42 -132 123 -193 181 -192 179 -161 150 -490 460 -20 19 -102 96 -181
171 -79 75 -157 148 -172 162 -16 14 -91 86 -169 159 -77 73 -168 159 -201
191 -53 50 -201 192 -481 461 -192 183 -247 238 -244 240 2 2 33 14 70 28 l67
26 115 -112 c63 -61 175 -167 247 -236 73 -69 171 -163 220 -210 48 -47 180
-175 294 -285 114 -110 254 -245 310 -300 56 -55 237 -231 401 -392 165 -160
368 -358 452 -441 l153 -149 47 15 c79 24 217 75 226 83 5 4 -31 45 -78 91
-105 100 -176 168 -416 398 -100 96 -214 206 -253 244 -224 214 -495 476 -598
576 -109 107 -458 447 -725 706 -88 85 -111 113 -102 122 7 7 17 12 23 12 7 0
25 6 41 14 16 8 42 18 57 21 26 7 87 -52 1099 -1064 l1071 -1072 91 43 c50 24
93 46 94 51 2 4 7 7 12 7 5 0 39 18 76 39 l67 39 -29 27 c-16 15 -57 52 -92
84 -35 31 -80 72 -101 91 -41 38 -192 175 -221 200 -25 22 -174 158 -219 200
-20 19 -77 71 -126 115 -48 44 -100 91 -115 105 -15 14 -66 61 -115 105 -48
44 -100 91 -115 105 -15 14 -66 60 -113 103 -47 43 -103 95 -125 115 -22 20
-79 73 -127 117 -48 44 -106 98 -130 120 -23 22 -93 87 -155 145 -62 58 -131
123 -155 145 -23 22 -99 93 -168 159 -70 65 -127 122 -127 126 0 5 12 12 28
18 15 5 50 19 78 30 l50 20 150 -145 c215 -209 746 -728 963 -941 102 -101
372 -367 599 -590 227 -224 420 -409 429 -410 8 -2 18 0 22 5 3 4 33 26 66 48
33 21 86 59 117 83 l57 43 -91 87 c-50 48 -112 107 -138 132 -26 25 -134 129
-241 231 -107 103 -223 215 -259 249 -161 154 -472 454 -560 540 -53 52 -225
220 -381 372 -447 436 -431 418 -411 425 9 4 41 16 71 28 l55 21 212 -216
c333 -339 382 -388 831 -857 43 -44 146 -152 228 -238 83 -87 170 -179 195
-204 25 -26 122 -127 215 -225 209 -218 302 -311 313 -311 10 0 106 82 192
162 30 29 58 53 63 53 25 1 -12 44 -155 181 -89 85 -182 174 -208 199 -45 43
-365 350 -534 513 -44 43 -178 172 -296 286 -118 115 -258 251 -310 301 -183
177 -470 460 -470 463 0 6 107 51 150 62 3 1 13 5 22 9 13 6 66 -42 240 -217
253 -255 700 -713 869 -892 155 -163 588 -596 674 -674 39 -35 81 -73 95 -86
l26 -23 35 37 c19 20 50 56 69 81 19 25 40 49 46 55 6 5 21 24 33 42 18 26 19
33 7 40 -8 4 -32 24 -53 43 -21 19 -72 64 -113 100 -41 36 -77 67 -80 70 -3 3
-39 34 -80 70 -41 36 -82 72 -90 80 -8 8 -49 44 -90 80 -41 36 -84 74 -96 85
-11 11 -49 45 -84 75 -35 30 -73 64 -84 75 -12 11 -57 51 -101 90 -44 38 -98
86 -120 106 -22 20 -52 47 -66 60 -15 13 -62 56 -105 94 -43 39 -88 79 -100
90 -30 27 -179 163 -218 200 -18 17 -74 68 -125 114 -232 212 -291 270 -285
285 3 7 10 13 17 13 7 0 70 23 141 52 70 28 133 48 138 45 6 -4 25 -23 43 -43
18 -20 50 -54 72 -77 40 -43 138 -150 299 -329 54 -60 108 -119 119 -131 11
-11 56 -61 100 -110 77 -87 270 -278 795 -792 l255 -250 32 48 c18 27 41 64
52 83 10 19 25 44 33 56 14 24 44 -7 -469 488 -502 484 -1153 1125 -1153 1135
0 4 7 8 15 8 8 0 23 4 33 10 9 5 51 23 94 39 l76 29 48 -52 c26 -28 70 -76 99
-106 28 -30 93 -102 145 -160 51 -58 100 -112 109 -121 13 -13 88 -95 189
-208 135 -150 298 -318 508 -522 126 -122 251 -256 329 -351 26 -32 49 -58 52
-58 34 0 776 368 883 438 14 9 40 25 59 35 30 16 172 104 221 137 615 407 920
800 1007 1295 2 11 5 85 7 165 4 129 -3 214 -27 330 -8 42 -56 172 -68 186 -6
8 -8 14 -4 14 5 0 1 8 -7 18 -9 9 -24 33 -33 52 -10 19 -21 37 -24 40 -3 3
-24 28 -46 55 -50 63 -99 109 -150 143 -22 15 -42 30 -45 33 -9 11 -113 64
-170 87 -64 25 -187 59 -246 67 -23 3 -59 8 -80 11 -22 3 -84 7 -139 9 -55 2
-105 4 -110 5 -6 1 -12 2 -15 1 -3 -1 -43 -4 -90 -6 -88 -4 -160 -11 -220 -20
-19 -3 -55 -8 -80 -11 -70 -9 -92 -13 -200 -34 -30 -6 -66 -13 -80 -16 -20 -4
-120 -27 -252 -60 -10 -2 -27 -6 -39 -9 -12 -2 -80 -20 -152 -40 l-132 -36
-819 819 -819 820 -91 26 c-102 30 -117 34 -165 42 -19 3 -44 10 -57 14 -12 5
-24 6 -27 3 -3 -3 51 -60 120 -127 69 -66 160 -155 202 -196 43 -41 164 -158
270 -260 106 -102 299 -291 431 -420 277 -273 412 -402 754 -721 l49 -46 -74
-23 c-41 -12 -112 -35 -158 -51 l-85 -29 -110 117 c-128 135 -166 174 -846
863 -278 281 -602 611 -722 732 l-216 221 -159 3 c-87 1 -163 0 -170 -2z
m-2804 -2119 c24 -22 53 -49 65 -60 12 -11 49 -45 81 -75 33 -30 119 -109 190
-176 72 -67 146 -137 166 -155 20 -19 83 -77 141 -131 57 -53 122 -113 144
-135 23 -21 70 -63 105 -93 35 -30 73 -64 84 -75 12 -11 38 -32 58 -48 65 -49
167 -145 255 -241 37 -40 41 -47 25 -52 -10 -3 -41 -15 -70 -27 -43 -17 -55
-18 -68 -7 -8 7 -15 18 -15 26 0 7 -126 138 -281 291 -413 409 -898 892 -943
940 -32 34 -37 46 -32 68 8 31 3 34 95 -50z m6996 -290 c68 -23 72 -28 81 -88
22 -148 -10 -267 -105 -397 -14 -19 -33 -44 -41 -55 -30 -41 -204 -207 -259
-248 -31 -23 -60 -47 -66 -53 -35 -37 -387 -260 -477 -301 -21 -10 -38 -21
-38 -25 0 -5 -5 -8 -10 -8 -10 0 -7 107 5 177 2 15 -11 34 -52 70 -31 26 -61
53 -67 58 -6 6 -58 51 -116 100 -58 50 -109 95 -115 101 -5 6 -89 78 -185 160
-96 82 -188 161 -204 176 l-30 27 25 10 c13 5 70 24 127 42 l103 32 254 -259
c200 -204 256 -256 264 -244 5 8 8 17 5 21 -2 4 -6 56 -9 116 -5 99 -8 112
-38 161 -34 57 -145 179 -214 235 l-42 34 41 13 c23 6 48 14 57 16 119 30 302
74 321 78 14 3 34 7 45 9 11 3 40 8 65 12 25 4 52 9 60 10 18 3 96 15 130 20
14 2 57 7 95 11 39 3 71 7 73 9 1 1 62 1 135 0 93 -2 147 -8 182 -20z m-7049
-198 c73 -70 249 -244 392 -385 311 -308 431 -424 495 -477 26 -21 47 -42 47
-46 0 -3 -31 -17 -69 -30 l-70 -23 -23 29 c-12 16 -31 39 -43 52 -82 94 -114
129 -140 156 -16 18 -77 84 -135 147 -58 63 -114 124 -125 136 -67 71 -232
248 -247 267 -28 32 -179 198 -206 225 -27 28 -41 61 -35 80 7 18 14 12 159
-131z m5384 -387 c54 -58 129 -139 167 -180 81 -88 428 -437 496 -498 26 -23
47 -51 47 -61 0 -30 -22 -131 -29 -131 -3 0 -27 20 -52 43 -25 23 -74 67 -109
97 -35 30 -71 62 -80 70 -10 8 -43 38 -75 65 -32 28 -65 57 -74 65 -9 9 -50
45 -91 80 -41 36 -79 70 -85 76 -10 10 -208 183 -253 220 -13 10 -36 30 -50
44 -15 14 -82 72 -150 129 -67 57 -120 106 -118 108 2 2 59 24 127 48 l124 44
54 -57 c29 -31 97 -104 151 -162z m-5617 93 c-18 -157 -18 -430 1 -618 8 -75
24 -192 31 -225 1 -3 5 -25 9 -50 4 -25 10 -52 12 -61 4 -13 -13 -21 -83 -39
-49 -12 -97 -24 -108 -26 -11 -2 -31 -6 -45 -9 -45 -10 -129 -25 -167 -30 -12
-2 -34 -6 -50 -9 -15 -3 -53 -8 -83 -11 -30 -3 -73 -8 -95 -11 -54 -8 -241 -7
-285 0 -51 10 -100 26 -98 34 1 4 -4 18 -12 32 -7 14 -14 52 -14 85 -1 51 5
70 38 130 21 39 46 79 57 91 10 11 19 25 19 31 0 6 3 13 8 15 4 2 25 25 46 52
63 77 178 190 306 297 14 11 59 46 100 77 41 32 77 60 78 65 2 4 8 7 13 7 5 0
20 9 33 21 13 12 27 20 30 20 4 -1 13 4 20 12 8 8 38 29 68 48 29 18 58 37 63
42 18 14 100 65 106 66 4 1 5 -16 2 -36z m5274 -370 c180 -177 351 -344 379
-370 28 -26 87 -81 130 -122 43 -40 159 -150 257 -244 146 -141 176 -174 171
-191 -20 -64 -47 -127 -54 -124 -4 2 -42 35 -85 73 -126 113 -178 159 -195
175 -9 8 -54 49 -100 90 -46 41 -96 86 -110 100 -15 14 -57 52 -95 85 -37 33
-73 65 -79 71 -10 9 -81 72 -172 153 -22 20 -71 63 -109 96 -37 33 -83 74
-101 90 -18 17 -43 39 -56 49 -39 33 -162 139 -174 150 -10 10 -70 62 -149
129 -23 20 -27 27 -15 31 8 4 60 24 115 46 55 21 103 38 107 37 3 -1 154 -147
335 -324z m-5122 63 c27 -23 58 -48 68 -56 10 -8 33 -28 51 -45 18 -16 55 -48
81 -70 26 -22 59 -51 74 -65 50 -48 245 -212 258 -217 26 -10 12 -22 -49 -42
l-63 -20 -35 38 c-20 21 -65 72 -100 112 -36 41 -85 96 -110 124 -25 27 -49
55 -55 61 -5 6 -26 29 -45 50 -59 64 -150 174 -150 180 0 8 20 -5 75 -50z"/>
<path d="M7647 7904 c-1 -1 -74 -5 -162 -9 -88 -3 -182 -8 -210 -10 -27 -2
-86 -6 -130 -9 -78 -5 -185 -14 -255 -21 -19 -2 -69 -6 -110 -10 -41 -4 -77
-8 -80 -10 -3 -2 -34 -6 -70 -10 -74 -8 -101 -13 -107 -18 -2 -2 31 -37 73
-78 42 -41 113 -110 158 -153 44 -43 167 -163 271 -265 105 -103 231 -223 280
-266 50 -44 95 -84 101 -90 6 -5 24 -21 40 -35 79 -68 180 -156 184 -160 3 -3
14 -12 25 -20 19 -14 19 -14 5 7 -75 112 -181 254 -217 291 -24 25 -13 30 80
33 371 12 919 -1 1097 -27 76 -11 167 -12 215 -3 114 21 236 115 287 220 33
69 40 96 42 184 6 159 -87 305 -237 376 -70 32 -125 41 -397 64 -149 13 -310
18 -578 19 -167 1 -304 1 -305 0z"/>
</g>
</svg>
