{
    "accessors" : [
        {
            "bufferView" : 0,
            "componentType" : 5123,
            "count" : 990,
            "max" : [
                599
            ],
            "min" : [
                0
            ],
            "type" : "SCALAR"
        },
        {
            "bufferView" : 1,
            "componentType" : 5126,
            "count" : 600,
            "max" : [
                6.058058738708496,
                3.5010147094726562,
                7.232009410858154
            ],
            "min" : [
                -6.058058738708496,
                0.12776929140090942,
                -3.8189008235931396
            ],
            "type" : "VEC3"
        },
        {
            "bufferView" : 2,
            "componentType" : 5126,
            "count" : 600,
            "max" : [
                1.0,
                0.9997027516365051,
                0.9739636182785034
            ],
            "min" : [
                -1.0,
                -0.999987781047821,
                -1.0
            ],
            "type" : "VEC3"
        },
        {
            "bufferView" : 3,
            "componentType" : 5126,
            "count" : 600,
            "max" : [
                0.9995446801185608,
                0.9995447634137236
            ],
            "min" : [
                0.0004552365862764418,
                0.16582363843917847
            ],
            "type" : "VEC2"
        }
    ],
    "asset" : {
        "generator" : "Khronos Blender glTF 2.0 exporter",
        "version" : "2.0"
    },
    "bufferViews" : [
        {
            "buffer" : 0,
            "byteLength" : 1980,
            "byteOffset" : 0,
            "target" : 34963
        },
        {
            "buffer" : 0,
            "byteLength" : 7200,
            "byteOffset" : 1980,
            "target" : 34962
        },
        {
            "buffer" : 0,
            "byteLength" : 7200,
            "byteOffset" : 9180,
            "target" : 34962
        },
        {
            "buffer" : 0,
            "byteLength" : 4800,
            "byteOffset" : 16380,
            "target" : 34962
        }
    ],
    "buffers" : [
        {
            "byteLength" : 21180,
            "uri" : "saturn_v1.bin"
        }
    ],
    "images" : [
        {
            "mimeType" : "image/png",
            "name" : "texture",
            "uri" : "data:image/png;base64,"
        }
    ],
    "materials" : [
        {
            "name" : "Material.004",
            "pbrMetallicRoughness" : {
                "baseColorTexture" : {
                    "index" : 0
                }
            }
        }
    ],
    "meshes" : [
        {
            "name" : "Cube",
            "primitives" : [
                {
                    "attributes" : {
                        "NORMAL" : 2,
                        "POSITION" : 1,
                        "TEXCOORD_0" : 3
                    },
                    "indices" : 0,
                    "material" : 0
                }
            ]
        }
    ],
    "nodes" : [
        {
            "name" : "Camera",
            "rotation" : [
                0.018957871943712234,
                0.8327268958091736,
                -0.5526216626167297,
                0.028561757877469063
            ],
            "scale" : [
                1.0000003576278687,
                1.0000001192092896,
                1.000000238418579
            ],
            "translation" : [
                1.571183681488037,
                6.392195701599121,
                -14.352595329284668
            ]
        },
        {
            "mesh" : 0,
            "name" : "Cube"
        }
    ],
    "samplers" : [
        {}
    ],
    "scene" : 0,
    "scenes" : [
        {
            "name" : "Scene",
            "nodes" : [
                0,
                1
            ]
        }
    ],
    "textures" : [
        {
            "sampler" : 0,
            "source" : 0
        }
    ]
}
